<svg xmlns="http://www.w3.org/2000/svg" width="513.557" height="505.38" viewBox="0 0 513.557 505.38">
  <g id="Group_71" data-name="Group 71" transform="translate(-31.516 -855.778)">
    <path id="Path_206" data-name="Path 206" d="M2633.027-1067.791c10.557-9.957,72.319-74.937,166.282-45.067s188.452,125.244,192.675,134.677,36.423,40.351,19,122.624-118.772,190.748-148.333,206.993c-29.033,14.149-95.018,53.976-153.612,16.769s-158.364-82.273-183.174-125.768-33.257-79.129-2.639-151.97S2622.469-1057.834,2633.027-1067.791Z" transform="translate(-2471.558 1977)" fill="none" stroke="#fff" stroke-width="1"/>
    <g id="Ellipse_53" data-name="Ellipse 53" transform="translate(46.965 1211.437)" fill="#fff" stroke="#fff" stroke-width="1">
      <circle cx="8.906" cy="8.906" r="8.906" stroke="none"/>
      <circle cx="8.906" cy="8.906" r="8.406" fill="none"/>
    </g>
    <path id="Path_207" data-name="Path 207" d="M2753.635-1103.695c8.483,0,69.351-22.026,125.456,33.039s85.744,193.51,80.451,247.526-23.289,81.285-58.751,112.75-114.884,48.771-147.156,54.015-99.492,16.781-150.833-34.612-76.746-142.642-75.158-195.608.529-107.506,54.517-155.752C2593.275-1054.924,2745.152-1103.695,2753.635-1103.695Z" transform="translate(-2453.355 1986.55)" fill="none" stroke="#fff" stroke-width="1"/>
    <path id="Path_208" data-name="Path 208" d="M2677-1083.592s58.771-38.3,112.247-6.82,127.073,124.329,153.017,187.805-5.824,112.788-11.648,118.559-77.3,89.706-130.25,105.444-106.423,25.181-181.078-15.738-91.068-158.428-91.068-174.69-2.648-90.23,46.593-135.87S2677-1083.592,2677-1083.592Z" transform="translate(-2452.887 1990.505)" fill="none" stroke="#fff" stroke-width="1"/>
    <g id="Ellipse_54" data-name="Ellipse 54" transform="translate(405.37 962.487)" fill="#fff" stroke="#fff" stroke-width="1">
      <ellipse cx="8.906" cy="8.35" rx="8.906" ry="8.35" stroke="none"/>
      <ellipse cx="8.906" cy="8.35" rx="8.406" ry="7.85" fill="none"/>
    </g>
  </g>
</svg>
