<svg xmlns="http://www.w3.org/2000/svg" width="512.474" height="503.004" viewBox="0 0 512.474 503.004">
  <g id="Group_72" data-name="Group 72" transform="translate(-31.526 -1417.496)">
    <path id="Path_210" data-name="Path 210" d="M3114.693-1077.2c19.623,0,75.585-9.491,152.622,48.915s66.863,138.715,62.5,170.109-7.268,128.494-88.666,165-188.233,27.743-232.566-24.093-74.13-73.008-77.765-160.618c-8.7-67.989,14.17-120.719,46.513-150.4C3030.823-1077.366,3114.693-1077.2,3114.693-1077.2Z" transform="translate(-2842.102 2543.999)" fill="none" stroke="#fff" stroke-width="1"/>
    <path id="Path_209" data-name="Path 209" d="M2905.959-869.478c-.126-7-27.017-150.7,118.343-203.956s213.68-23.344,275.458,13.13,113.38,93.373,104.659,217.385-26.165,165.592-104.659,210.09-201.324,42.31-267.463,0C3013.851-648.256,2911.647-710.153,2905.959-869.478Z" transform="translate(-2871.92 2520.27)" fill="none" stroke="#fff" stroke-width="1"/>
    <path id="Path_211" data-name="Path 211" d="M2938.079-944.475s13.082-62.041,101.749-113.864c78.492-37.225,149.717-29.2,218.034,0s91.575,63.5,101.023,127.732S3345.8-772.948,3305.1-730.614s-95.208,84.668-170.067,78.1-165.706-74.449-172.974-83.938-35.613-36.495-37.793-108.755S2938.079-944.475,2938.079-944.475Z" transform="translate(-2854.01 2537.16)" fill="none" stroke="#fff" stroke-width="1"/>
    <g id="Ellipse_56" data-name="Ellipse 56" transform="translate(523.035 1607.687)" fill="#fff" stroke="#fff" stroke-width="1">
      <circle cx="10.483" cy="10.483" r="10.483" stroke="none"/>
      <circle cx="10.483" cy="10.483" r="9.983" fill="none"/>
    </g>
  </g>
</svg>
