<svg xmlns="http://www.w3.org/2000/svg" width="512.591" height="465.154" viewBox="0 0 512.591 465.154">
  <g id="Group_73" data-name="Group 73" transform="translate(-31.409 -1975.359)">
    <path id="Path_212" data-name="Path 212" d="M2790.548-816.317s73.02-100.758,199.278-67.955,178.866,91.847,178.866,91.847,64.747,50.023,47.751,155.811S3107.99-461.942,3092.613-456.2s-74.459,41-169.962,25.422-169.154-90.206-174.819-97.587-46.942-50.844-33.992-135.31S2790.548-816.317,2790.548-816.317Z" transform="translate(-2679.339 2866.839)" fill="none" stroke="#fff" stroke-width="1"/>
    <path id="Path_213" data-name="Path 213" d="M2971.812-867.434c58.273,10.686,90.647,43.568,97.121,56.721s26.709,26.306,51.8,111.8-9.712,135.638-12.14,143.859-121.1,129.822-260.552,45.088-140.079-282.026-28.015-330.716S2971.812-867.434,2971.812-867.434Z" transform="translate(-2648.376 2887.221)" fill="none" stroke="rgba(255,255,255,0.76)" stroke-width="1"/>
    <path id="Path_214" data-name="Path 214" d="M2744.931-683.3c15.112-52.06,19.752-104.747,104.422-164.182s169.34-12.646,215.41,11.381,73.464,92.947,70.973,124.561-3.114,73.978-33,138.471-90.273,85.991-90.273,85.991-83.425,18.969-160.624-15.807-94.632-68.919-98.367-79.036S2729.818-631.244,2744.931-683.3Z" transform="translate(-2648.444 2882.772)" fill="none" stroke="#fff" stroke-width="1"/>
    <g id="Ellipse_58" data-name="Ellipse 58" transform="translate(525.468 2136.074)" fill="#fff" stroke="#fff" stroke-width="1">
      <circle cx="9.266" cy="9.266" r="9.266" stroke="none"/>
      <circle cx="9.266" cy="9.266" r="8.766" fill="none"/>
    </g>
  </g>
</svg>
